<svg width="24" height="24" viewBox="0 0 24 24" fill="none" xmlns="http://www.w3.org/2000/svg">
<path d="M9.25 5.125C9.25 6.21902 8.8154 7.26823 8.04182 8.04182C7.26823 8.8154 6.21902 9.25 5.125 9.25C4.03098 9.25 2.98177 8.8154 2.20818 8.04182C1.4346 7.26823 1 6.21902 1 5.125C1 4.03098 1.4346 2.98177 2.20818 2.20818C2.98177 1.4346 4.03098 1 5.125 1C6.21902 1 7.26823 1.4346 8.04182 2.20818C8.8154 2.98177 9.25 4.03098 9.25 5.125V5.125Z" stroke="white" stroke-width="2"/>
<path d="M13.375 9.25C12.281 9.25 11.2318 8.8154 10.4582 8.04182C9.6846 7.26823 9.25 6.21902 9.25 5.125C9.25 4.03098 9.6846 2.98177 10.4582 2.20818C11.2318 1.4346 12.281 1 13.375 1C14.469 1 15.5182 1.4346 16.2918 2.20818C17.0654 2.98177 17.5 4.03098 17.5 5.125C17.5 6.21902 17.0654 7.26823 16.2918 8.04182C15.5182 8.8154 14.469 9.25 13.375 9.25Z" stroke="white" stroke-width="2"/>
<path d="M13.375 9.25H14.0625C14.7295 9.24992 15.3738 9.49227 15.8754 9.9319C16.377 10.3715 16.7017 10.9785 16.7891 11.6397L21.0654 9.7395C21.2747 9.64624 21.504 9.60676 21.7324 9.62467C21.9609 9.64257 22.1812 9.71729 22.3735 9.84202C22.5657 9.96676 22.7237 10.1376 22.8331 10.3389C22.9425 10.5402 22.9999 10.7657 23 10.9949V21.2551C22.9998 21.4841 22.9424 21.7094 22.8331 21.9106C22.7237 22.1117 22.5659 22.2824 22.3738 22.4071C22.1818 22.5318 21.9617 22.6066 21.7334 22.6246C21.5052 22.6427 21.276 22.6035 21.0667 22.5105L16.7891 20.6103C16.7017 21.2715 16.377 21.8785 15.8754 22.3181C15.3738 22.7577 14.7295 23.0001 14.0625 23H3.75C3.02065 23 2.32118 22.7103 1.80546 22.1945C1.28973 21.6788 1 20.9793 1 20.25V12C1 11.2707 1.28973 10.5712 1.80546 10.0555C2.32118 9.53973 3.02065 9.25 3.75 9.25H13.375Z" stroke="white" stroke-width="2"/>
</svg>
