<svg width="22" height="26" viewBox="0 0 22 26" fill="none" xmlns="http://www.w3.org/2000/svg">
<path fill-rule="evenodd" clip-rule="evenodd" d="M10.9981 5.26424C9.01694 5.265 7.08933 5.90761 5.50401 7.09581C3.91868 8.28401 2.76098 9.95385 2.2043 11.8552C1.64762 13.7566 1.72192 15.7871 2.41609 17.6427C3.11025 19.4983 4.38691 21.079 6.05484 22.1482C7.72277 23.2173 9.6922 23.7173 11.6681 23.5733C13.6441 23.4293 15.5202 22.6489 17.0154 21.3492C18.5106 20.0494 19.5445 18.3002 19.9623 16.3636C20.38 14.4269 20.159 12.4071 19.3324 10.6066C19.2425 10.3877 19.2407 10.1424 19.3274 9.92223C19.4141 9.70202 19.5827 9.52388 19.7977 9.42511C20.0128 9.32633 20.2578 9.31457 20.4813 9.39229C20.7049 9.47001 20.8897 9.63118 20.9971 9.84207C21.9889 12.0028 22.254 14.4267 21.7526 16.7508C21.2512 19.0748 20.0103 21.1738 18.2158 22.7334C16.4213 24.293 14.1699 25.2292 11.7986 25.4019C9.42741 25.5745 7.06408 24.9742 5.06265 23.6909C3.06123 22.4076 1.52944 20.5105 0.696743 18.2835C-0.135954 16.0566 -0.224737 13.6199 0.443692 11.3383C1.11212 9.05667 2.50178 7.05305 4.40451 5.62752C6.30725 4.202 8.62062 3.43131 10.9981 3.43091V5.26424Z" fill="white"/>
<path d="M10.9983 7.95198V0.743318C10.9983 0.656228 11.0232 0.57095 11.0699 0.49747C11.1167 0.42399 11.1834 0.365349 11.2622 0.328415C11.3411 0.291481 11.4289 0.277782 11.5153 0.288922C11.6016 0.300062 11.683 0.33558 11.75 0.391318L16.0766 3.99565C16.2966 4.17898 16.2966 4.51631 16.0766 4.69965L11.75 8.30398C11.683 8.35972 11.6016 8.39523 11.5153 8.40637C11.4289 8.41752 11.3411 8.40382 11.2622 8.36688C11.1834 8.32995 11.1167 8.27131 11.0699 8.19783C11.0232 8.12435 10.9983 8.03907 10.9983 7.95198V7.95198Z" fill="white"/>
</svg>
