<svg width="24" height="29" viewBox="0 0 24 29" fill="none" xmlns="http://www.w3.org/2000/svg">
<path d="M3.00101 4.83376C1.77315 3.12454 2.85303 1.04023 4.71682 0L12 12.038L19.2832 0C21.147 1.04023 22.2269 3.12454 20.999 4.83376L13.6198 14.714L16.7315 19.859C17.834 19.316 19.1057 19.1877 20.3005 19.4987C21.4953 19.8098 22.5283 20.5382 23.1998 21.5431C23.8713 22.548 24.1335 23.7579 23.9357 24.9389C23.7379 26.1199 23.0942 27.1879 22.1291 27.9366C21.1639 28.6852 19.9459 29.0612 18.7106 28.9919C17.4754 28.9225 16.3106 28.4127 15.4416 27.561C14.5726 26.7094 14.0611 25.5764 14.0061 24.3812C13.951 23.186 14.3564 22.0136 15.1436 21.0907L12 16.8795L8.85635 21.0887C9.64365 22.0117 10.049 23.1841 9.99394 24.3793C9.93891 25.5745 9.42743 26.7074 8.55843 27.5591C7.68942 28.4107 6.52464 28.9206 5.28936 28.9899C4.05409 29.0593 2.83609 28.6833 1.87094 27.9347C0.905794 27.186 0.262078 26.1179 0.0642948 24.9369C-0.133489 23.756 0.128714 22.546 0.80019 21.5412C1.47167 20.5363 2.5047 19.8079 3.6995 19.4968C4.8943 19.1857 6.16596 19.3141 7.26853 19.8571L10.3802 14.714L3.00101 4.83376ZM8.00045 24.1688C8.00045 23.3996 7.68441 22.6619 7.12187 22.118C6.55932 21.5741 5.79635 21.2685 5.00079 21.2685C4.20523 21.2685 3.44225 21.5741 2.8797 22.118C2.31716 22.6619 2.00112 23.3996 2.00112 24.1688C2.00112 24.938 2.31716 25.6757 2.8797 26.2196C3.44225 26.7635 4.20523 27.0691 5.00079 27.0691C5.79635 27.0691 6.55932 26.7635 7.12187 26.2196C7.68441 25.6757 8.00045 24.938 8.00045 24.1688ZM21.9989 24.1688C21.9989 23.3996 21.6828 22.6619 21.1203 22.118C20.5578 21.5741 19.7948 21.2685 18.9992 21.2685C18.2037 21.2685 17.4407 21.5741 16.8781 22.118C16.3156 22.6619 15.9996 23.3996 15.9996 24.1688C15.9996 24.938 16.3156 25.6757 16.8781 26.2196C17.4407 26.7635 18.2037 27.0691 18.9992 27.0691C19.7948 27.0691 20.5578 26.7635 21.1203 26.2196C21.6828 25.6757 21.9989 24.938 21.9989 24.1688Z" fill="white"/>
</svg>
