<svg width="26" height="26" viewBox="0 0 26 26" fill="none" xmlns="http://www.w3.org/2000/svg">
<path d="M19.7361 0.238692C19.8115 0.16303 19.9012 0.103001 19.9999 0.0620418C20.0986 0.0210831 20.2044 0 20.3113 0C20.4182 0 20.524 0.0210831 20.6227 0.0620418C20.7214 0.103001 20.8111 0.16303 20.8865 0.238692L25.7613 5.11348C25.837 5.18895 25.897 5.27861 25.938 5.37731C25.9789 5.47602 26 5.58184 26 5.6887C26 5.79557 25.9789 5.90139 25.938 6.00009C25.897 6.0988 25.837 6.18846 25.7613 6.26393L9.51202 22.5132C9.43405 22.5906 9.34118 22.6515 9.23903 22.692L1.11439 25.9418C0.966739 26.0009 0.804993 26.0154 0.649201 25.9834C0.493409 25.9515 0.350421 25.8745 0.237966 25.762C0.12551 25.6496 0.0485314 25.5066 0.0165732 25.3508C-0.015385 25.195 -0.000917425 25.0333 0.0581823 24.8856L3.30804 16.761C3.34855 16.6588 3.40935 16.566 3.48678 16.488L19.7361 0.238692V0.238692ZM18.2103 4.06377L21.9362 7.78974L24.0373 5.6887L20.3113 1.96274L18.2103 4.06377ZM20.7874 8.93856L17.0614 5.2126L6.4994 15.7746V16.2507H7.31186C7.52734 16.2507 7.734 16.3363 7.88636 16.4887C8.03873 16.6411 8.12433 16.8477 8.12433 17.0632V17.8757H8.93679C9.15227 17.8757 9.35893 17.9613 9.51129 18.1136C9.66366 18.266 9.74926 18.4727 9.74926 18.6881V19.5006H10.2254L20.7874 8.93856V8.93856ZM4.92647 17.3476L4.75423 17.5198L2.27134 23.7287L8.48019 21.2458L8.65243 21.0735C8.49744 21.0156 8.36383 20.9118 8.26946 20.7759C8.17509 20.64 8.12445 20.4785 8.12433 20.3131V19.5006H7.31186C7.09639 19.5006 6.88973 19.415 6.73737 19.2626C6.585 19.1103 6.4994 18.9036 6.4994 18.6881V17.8757H5.68694C5.52149 17.8755 5.36002 17.8249 5.22412 17.7305C5.08822 17.6362 4.98438 17.5026 4.92647 17.3476V17.3476Z" fill="white"/>
</svg>
