<svg width="28" height="20" viewBox="0 0 28 20" fill="none" xmlns="http://www.w3.org/2000/svg">
<path d="M27.6424 0.367152C27.7557 0.483241 27.8457 0.621149 27.907 0.772978C27.9684 0.924807 28 1.08757 28 1.25195C28 1.41634 27.9684 1.5791 27.907 1.73093C27.8457 1.88276 27.7557 2.02067 27.6424 2.13676L10.6012 19.6328C10.4881 19.7492 10.3538 19.8416 10.2059 19.9046C10.058 19.9676 9.89948 20 9.73938 20C9.57927 20 9.42073 19.9676 9.27285 19.9046C9.12497 19.8416 8.99065 19.7492 8.87758 19.6328L0.356968 10.8848C0.128405 10.6501 0 10.3319 0 10C0 9.66813 0.128405 9.34986 0.356968 9.1152C0.585532 8.88053 0.89553 8.7487 1.21877 8.7487C1.542 8.7487 1.852 8.88053 2.08057 9.1152L9.73938 16.9809L25.9188 0.367152C26.0319 0.25077 26.1662 0.158434 26.3141 0.0954319C26.462 0.0324299 26.6205 0 26.7806 0C26.9407 0 27.0992 0.0324299 27.2471 0.0954319C27.395 0.158434 27.5293 0.25077 27.6424 0.367152V0.367152Z" fill="white"/>
</svg>
