<svg width="132" height="132" viewBox="0 0 132 132" fill="none" xmlns="http://www.w3.org/2000/svg">
<path d="M116.547 67.2043L104.981 74.4409C104.638 74.6563 104.244 74.7759 103.839 74.7871C103.434 74.7983 103.034 74.7008 102.68 74.5047C102.326 74.3086 102.031 74.0212 101.825 73.6723C101.62 73.3233 101.512 72.9257 101.512 72.5208V58.0386C101.512 57.6337 101.62 57.2361 101.825 56.8872C102.031 56.5383 102.326 56.2508 102.68 56.0547C103.034 55.8586 103.434 55.7611 103.839 55.7724C104.244 55.7836 104.638 55.9031 104.981 56.1185L116.556 63.3551C116.882 63.5586 117.15 63.8417 117.336 64.1775C117.523 64.5134 117.62 64.8912 117.62 65.2752C117.62 65.6592 117.523 66.0369 117.336 66.3728C117.15 66.7087 116.882 66.9918 116.556 67.1953L116.547 67.2043Z" fill="white" style="mix-blend-mode:exclusion"/>
<circle cx="66" cy="66" r="64.5" stroke="white" stroke-width="3" style="mix-blend-mode:difference"/>
</svg>
