<svg width="12" height="12" viewBox="0 0 12 12" fill="none" xmlns="http://www.w3.org/2000/svg">
<g clip-path="url(#clip0_509_85)">
<path d="M8.44651 1.479L8.30735 1.61845V1.479H7.62176C7.31265 1.95667 6.66005 2.28685 5.90238 2.28685C5.14499 2.28685 4.4924 1.95667 4.18329 1.479H3.4977V1.61845L3.35825 1.479L0.892578 3.94607L2.2413 5.29589L3.4977 4.03894L3.4977 10.3243H8.30679V4.03921L9.56347 5.29617L10.9119 3.94607L8.44651 1.479Z" fill="black"/>
<path d="M8.30684 10.8785H3.49775C3.19169 10.8785 2.94329 10.6301 2.94329 10.324V5.37772L2.63335 5.68767C2.52939 5.7919 2.38828 5.85012 2.24107 5.85012C2.09414 5.85012 1.95275 5.79163 1.84879 5.68767L0.50007 4.33784C0.283831 4.12132 0.283831 3.77063 0.50007 3.55383L2.9663 1.08677C3.08662 0.966178 3.26044 0.907683 3.42789 0.928752C3.4509 0.92598 3.47418 0.924316 3.49775 0.924316H4.18333C4.3713 0.924316 4.54678 1.01968 4.6488 1.17743C4.86698 1.51454 5.35906 1.73216 5.90243 1.73216C6.4458 1.73216 6.93816 1.51454 7.15634 1.17743C7.25836 1.01968 7.43357 0.924316 7.62181 0.924316H8.30739C8.33096 0.924316 8.35425 0.925703 8.37726 0.928752C8.39999 0.92598 8.423 0.924316 8.44629 0.924316C8.44656 0.924316 8.44656 0.924316 8.44656 0.924316C8.59349 0.924316 8.7346 0.982812 8.83884 1.08677L11.3045 3.55356C11.5208 3.77007 11.5208 4.12077 11.3045 4.33756L9.95607 5.68767C9.85211 5.79163 9.711 5.85012 9.56407 5.85012C9.5638 5.85012 9.5638 5.85012 9.5638 5.85012C9.41686 5.8504 9.27575 5.7919 9.17179 5.68794L8.86158 5.37745V10.324C8.8613 10.6304 8.61318 10.8785 8.30684 10.8785ZM4.05221 9.76959H7.75238L7.75238 4.03899C7.75238 3.81471 7.88739 3.61261 8.09448 3.52667C8.30185 3.44045 8.53999 3.48813 8.69884 3.64698L9.56324 4.51138L10.1282 3.94584L8.35425 2.17074C8.26581 2.17878 8.17876 2.16492 8.09531 2.13054C8.03737 2.1067 7.98498 2.07343 7.93951 2.03323H7.89183C7.43412 2.53779 6.70057 2.84108 5.90243 2.84108C5.10429 2.84108 4.37102 2.53779 3.91304 2.03323H3.86535C3.82016 2.07343 3.76777 2.10642 3.70983 2.13054C3.62583 2.16519 3.53656 2.17739 3.45034 2.17074L1.67608 3.94611L2.24107 4.51166L3.10519 3.64698C3.26377 3.48813 3.50218 3.44072 3.70955 3.52667C3.91692 3.61261 4.05193 3.81471 4.05193 4.03899V9.76959H4.05221Z" fill="black"/>
</g>
<defs>
<clipPath id="clip0_509_85">
<rect width="11.1288" height="11.1288" fill="white" transform="translate(0.337891 0.337891)"/>
</clipPath>
</defs>
</svg>
