<svg width="16" height="18" viewBox="0 0 16 18" fill="none" xmlns="http://www.w3.org/2000/svg">
<path d="M6.28551 0C6.13395 0 5.9886 0.0592632 5.88143 0.164752C5.77426 0.270242 5.71405 0.413316 5.71405 0.5625C5.71405 0.711684 5.77426 0.854758 5.88143 0.960248C5.9886 1.06574 6.13395 1.125 6.28551 1.125H6.85697V2.32875C4.85509 2.61355 3.03708 3.63406 1.7687 5.18493C0.500329 6.73581 -0.124278 8.70197 0.0205519 10.6878C0.165382 12.6737 1.0689 14.5319 2.54932 15.8885C4.02975 17.2452 5.97721 17.9996 7.99989 18C9.53357 17.9999 11.0349 17.566 12.3251 16.7498C13.6153 15.9335 14.64 14.7695 15.2771 13.3963C15.9142 12.023 16.1368 10.4985 15.9186 9.00422C15.7003 7.50995 15.0503 6.10892 14.0459 4.968C14.0509 4.96358 14.0559 4.95908 14.0608 4.9545L14.4654 4.55625L14.8688 4.9545C14.9215 5.00822 14.9846 5.05108 15.0543 5.08056C15.124 5.11004 15.199 5.12555 15.2749 5.1262C15.3508 5.12685 15.426 5.11262 15.4963 5.08434C15.5665 5.05605 15.6303 5.01429 15.6839 4.96147C15.7376 4.90866 15.78 4.84585 15.8088 4.77672C15.8375 4.70759 15.852 4.63353 15.8513 4.55884C15.8506 4.48415 15.8349 4.41034 15.8049 4.34171C15.775 4.27308 15.7314 4.21101 15.6769 4.15912L14.0608 2.56725C14.0081 2.51353 13.945 2.47067 13.8753 2.44119C13.8056 2.41171 13.7306 2.3962 13.6547 2.39555C13.5788 2.3949 13.5036 2.40913 13.4333 2.43741C13.3631 2.4657 13.2993 2.50746 13.2456 2.56028C13.192 2.61309 13.1496 2.6759 13.1208 2.74503C13.0921 2.81416 13.0776 2.88822 13.0783 2.96291C13.079 3.0376 13.0947 3.11141 13.1247 3.18004C13.1546 3.24867 13.1981 3.31074 13.2527 3.36263L13.6573 3.76087L13.2527 4.15912C13.2481 4.16357 13.2435 4.16807 13.239 4.17263C12.082 3.18349 10.6598 2.54369 9.1428 2.32987V1.125H9.71426C9.86582 1.125 10.0112 1.06574 10.1183 0.960248C10.2255 0.854758 10.2857 0.711684 10.2857 0.5625C10.2857 0.413316 10.2255 0.270242 10.1183 0.164752C10.0112 0.0592632 9.86582 0 9.71426 0L6.28551 0ZM8.57134 6.3V10.125C8.57134 10.2742 8.51114 10.4173 8.40397 10.5227C8.2968 10.6282 8.15145 10.6875 7.99989 10.6875H3.99968C3.84812 10.6875 3.70276 10.6282 3.59559 10.5227C3.48842 10.4173 3.42822 10.2742 3.42822 10.125C3.42822 9.97582 3.48842 9.83274 3.59559 9.72725C3.70276 9.62176 3.84812 9.5625 3.99968 9.5625H7.42843V6.3C7.42843 6.15082 7.48863 6.00774 7.5958 5.90225C7.70297 5.79676 7.84832 5.7375 7.99989 5.7375C8.15145 5.7375 8.2968 5.79676 8.40397 5.90225C8.51114 6.00774 8.57134 6.15082 8.57134 6.3Z" fill="white"/>
</svg>
